<svg width="32" height="33" viewBox="0 0 32 33" fill="none" xmlns="http://www.w3.org/2000/svg">
<path d="M10.6452 26.2684C10.6452 26.1363 10.5161 26.0042 10.3226 26.0042C10.129 26.0042 10 26.1363 10 26.2684C10 26.4006 10.129 26.5327 10.3226 26.4667C10.5161 26.4667 10.6452 26.4006 10.6452 26.2684ZM8.64516 25.9381C8.64516 26.0702 8.77419 26.2684 8.96774 26.2684C9.09677 26.3345 9.29032 26.2684 9.35484 26.1363C9.35484 26.0042 9.29032 25.872 9.09677 25.8059C8.90323 25.7399 8.70968 25.8059 8.64516 25.9381ZM11.5484 25.872C11.3548 25.872 11.2258 26.0042 11.2258 26.2024C11.2258 26.3345 11.4194 26.4006 11.6129 26.3345C11.8065 26.2684 11.9355 26.2024 11.871 26.0702C11.871 25.9381 11.6774 25.8059 11.5484 25.872ZM15.7419 0.5C6.83871 0.5 0 7.50373 0 16.6218C0 23.9559 4.45161 30.2328 10.9032 32.4793C11.7419 32.6115 12 32.0829 12 31.6864C12 31.2239 12 28.9774 12 27.5899C12 27.5899 7.48387 28.581 6.51613 25.6077C6.51613 25.6077 5.80645 23.6916 4.77419 23.2291C4.77419 23.2291 3.29032 22.1719 4.83871 22.1719C4.83871 22.1719 6.45161 22.3041 7.35484 23.8898C8.77419 26.4667 11.0968 25.7399 12.0645 25.2774C12.1935 24.2202 12.5806 23.4934 13.0968 23.0309C9.48387 22.6344 5.80645 22.1059 5.80645 15.7628C5.80645 13.9128 6.32258 13.0539 7.35484 11.8645C7.16129 11.402 6.64516 9.68414 7.54839 7.37159C8.83871 6.97515 12 9.15556 12 9.15556C13.2903 8.75912 14.6452 8.62697 16 8.62697C17.4194 8.62697 18.7742 8.75912 20.0645 9.15556C20.0645 9.15556 23.1613 6.90908 24.5161 7.37159C25.4194 9.68414 24.8387 11.402 24.7097 11.8645C25.7419 13.0539 26.3871 13.9128 26.3871 15.7628C26.3871 22.1059 22.5806 22.6344 18.9677 23.0309C19.5484 23.5595 20.0645 24.5506 20.0645 26.1363C20.0645 28.3167 20 31.0918 20 31.6204C20 32.0829 20.3226 32.6115 21.1613 32.4132C27.6129 30.2328 32 23.9559 32 16.6218C32 7.50373 24.7097 0.5 15.7419 0.5ZM6.25806 23.2952C6.12903 23.3612 6.19355 23.5595 6.25806 23.6916C6.3871 23.7577 6.51613 23.8237 6.64516 23.7577C6.70968 23.6916 6.70968 23.4934 6.58065 23.3612C6.45161 23.2952 6.32258 23.2291 6.25806 23.2952ZM5.54839 22.7666C5.48387 22.8987 5.54839 22.9648 5.67742 23.0309C5.80645 23.0969 5.93548 23.0969 6 22.9648C6 22.8987 5.93548 22.8327 5.80645 22.7666C5.67742 22.7005 5.6129 22.7005 5.54839 22.7666ZM7.6129 25.1452C7.54839 25.2113 7.54839 25.4095 7.74194 25.5416C7.87097 25.6738 8.06452 25.7399 8.12903 25.6077C8.19355 25.5416 8.19355 25.3434 8.06452 25.2113C7.93548 25.0791 7.74194 25.0131 7.6129 25.1452ZM6.90323 24.1541C6.77419 24.2202 6.77419 24.4184 6.90323 24.5506C7.03226 24.6827 7.16129 24.7488 7.29032 24.6827C7.35484 24.6166 7.35484 24.4184 7.29032 24.2863C7.16129 24.1541 7.03226 24.088 6.90323 24.1541Z" fill="white"/>
</svg>
