<svg width="31" height="31" viewBox="0 0 31 31" fill="none" xmlns="http://www.w3.org/2000/svg">
<path d="M15.495 30.9948C23.97 30.9948 30.99 23.9899 30.99 15.4999C30.99 7.02488 23.97 0.00488281 15.48 0.00488281C7.005 0.00488281 0 7.02488 0 15.4999C0 23.9899 7.02 30.9948 15.495 30.9948ZM6.465 6.06488C7.965 4.63989 9.78 3.54488 11.805 2.94488C10.74 4.00988 9.84 5.50989 9.165 7.33988C8.115 7.00988 7.21501 6.57489 6.465 6.06488ZM19.2001 2.95989C21.21 3.55989 23.025 4.63989 24.51 6.06488C23.775 6.58988 22.8751 7.00988 21.825 7.35488C21.15 5.50989 20.25 4.00988 19.2001 2.95989ZM16.545 3.43989C17.79 4.03989 18.93 5.65988 19.74 7.86488C18.75 8.04488 17.685 8.14989 16.545 8.19488V3.43989ZM11.25 7.86488C12.075 5.65988 13.2001 4.03989 14.445 3.43989V8.19488C13.305 8.14989 12.24 8.04488 11.25 7.86488ZM2.445 14.4499C2.65501 11.8999 3.61501 9.54488 5.085 7.60988C6 8.28488 7.185 8.86989 8.565 9.30488C8.17501 10.8649 7.92 12.6048 7.845 14.4499H2.445ZM23.145 14.4499C23.07 12.6048 22.815 10.8649 22.425 9.30488C23.805 8.86989 24.99 8.29988 25.89 7.60988C27.375 9.54488 28.335 11.8999 28.545 14.4499H23.145ZM9.99 14.4499C10.065 12.8149 10.29 11.2549 10.635 9.84488C11.835 10.0849 13.1099 10.2349 14.445 10.2949V14.4499H9.99ZM16.545 14.4499V10.2949C17.88 10.2349 19.155 10.0849 20.355 9.84488C20.7 11.2549 20.925 12.8149 21 14.4499H16.545ZM2.445 16.5499H7.845C7.92 18.4249 8.17501 20.1799 8.565 21.7549C7.2 22.1898 6.03 22.7598 5.13 23.4349C3.63 21.4848 2.65501 19.1149 2.445 16.5499ZM9.99 16.5499H14.445V20.7799C13.125 20.8398 11.835 20.9899 10.65 21.2149C10.29 19.7899 10.05 18.1998 9.99 16.5499ZM16.545 20.7799V16.5499H21C20.94 18.1998 20.7 19.7899 20.34 21.2149C19.155 20.9899 17.88 20.8398 16.545 20.7799ZM22.425 21.7549C22.83 20.1799 23.07 18.4249 23.145 16.5499H28.545C28.335 19.1149 27.3601 21.4848 25.86 23.4349C24.9601 22.7598 23.79 22.1898 22.425 21.7549ZM16.545 22.8799C17.6699 22.9248 18.735 23.0299 19.71 23.2099C18.9 25.3699 17.775 26.9749 16.545 27.5598V22.8799ZM11.28 23.2099C12.255 23.0299 13.32 22.9248 14.445 22.8799V27.5598C13.215 26.9749 12.09 25.3699 11.28 23.2099ZM6.50999 24.9799C7.245 24.4699 8.145 24.0499 9.18 23.7198C9.85501 25.5199 10.74 26.9898 11.775 28.0398C9.795 27.4399 7.995 26.3749 6.50999 24.9799ZM21.81 23.7198C22.845 24.0499 23.745 24.4699 24.4801 24.9799C22.995 26.3749 21.1949 27.4399 19.215 28.0398C20.25 26.9898 21.135 25.5199 21.81 23.7198Z" fill="white"/>
</svg>
