<svg width="33" height="33" viewBox="0 0 33 33" fill="none" xmlns="http://www.w3.org/2000/svg">
<path d="M16.5 10.9062C13.5 10.9062 11.1094 13.3438 11.1094 16.2969C11.1094 19.2969 13.5 21.6875 16.5 21.6875C19.4531 21.6875 21.8906 19.2969 21.8906 16.2969C21.8906 13.3438 19.4531 10.9062 16.5 10.9062ZM16.5 19.8125C14.5781 19.8125 12.9844 18.2656 12.9844 16.2969C12.9844 14.375 14.5312 12.8281 16.5 12.8281C18.4219 12.8281 19.9688 14.375 19.9688 16.2969C19.9688 18.2656 18.4219 19.8125 16.5 19.8125ZM23.3438 10.7188C23.3438 10.0156 22.7812 9.45312 22.0781 9.45312C21.375 9.45312 20.8125 10.0156 20.8125 10.7188C20.8125 11.4219 21.375 11.9844 22.0781 11.9844C22.7812 11.9844 23.3438 11.4219 23.3438 10.7188ZM26.9062 11.9844C26.8125 10.2969 26.4375 8.79688 25.2188 7.57812C24 6.35938 22.5 5.98438 20.8125 5.89062C19.0781 5.79688 13.875 5.79688 12.1406 5.89062C10.4531 5.98438 9 6.35938 7.73438 7.57812C6.51562 8.79688 6.14062 10.2969 6.04688 11.9844C5.95312 13.7188 5.95312 18.9219 6.04688 20.6562C6.14062 22.3438 6.51562 23.7969 7.73438 25.0625C9 26.2812 10.4531 26.6562 12.1406 26.75C13.875 26.8438 19.0781 26.8438 20.8125 26.75C22.5 26.6562 24 26.2812 25.2188 25.0625C26.4375 23.7969 26.8125 22.3438 26.9062 20.6562C27 18.9219 27 13.7188 26.9062 11.9844ZM24.6562 22.4844C24.3281 23.4219 23.5781 24.125 22.6875 24.5C21.2812 25.0625 18 24.9219 16.5 24.9219C14.9531 24.9219 11.6719 25.0625 10.3125 24.5C9.375 24.125 8.67188 23.4219 8.29688 22.4844C7.73438 21.125 7.875 17.8438 7.875 16.2969C7.875 14.7969 7.73438 11.5156 8.29688 10.1094C8.67188 9.21875 9.375 8.51562 10.3125 8.14062C11.6719 7.57812 14.9531 7.71875 16.5 7.71875C18 7.71875 21.2812 7.57812 22.6875 8.14062C23.5781 8.46875 24.2812 9.21875 24.6562 10.1094C25.2188 11.5156 25.0781 14.7969 25.0781 16.2969C25.0781 17.8438 25.2188 21.125 24.6562 22.4844Z" fill="white"/>
</svg>
